<svg width="83" height="32" viewBox="0 0 83 32" fill="none" xmlns="http://www.w3.org/2000/svg">
<g clip-path="url(#clip0_198_7826)">
<path d="M21.2205 2.78777C21.3221 5.30924 23.3121 14.9313 23.3121 14.9313C24.0434 16.8802 24.673 14.9313 24.673 14.9313C27.0805 7.0265 22.1605 2.44553 22.1605 2.44553C20.9046 1.64192 21.2205 2.78777 21.2205 2.78777ZM49.7872 1.41397C49.7872 1.41397 52.1958 3.24672 49.7872 3.59017C49.7872 3.59017 40.7873 4.73541 34.0905 11.6111C34.0905 11.6111 24.0434 21.2314 20.2772 31.772C20.2772 31.772 19.0212 31.772 19.4415 29.7107C19.8596 27.6487 22.3699 18.5974 33.5658 7.48666C33.5658 7.48666 44.3475 -3.2831 49.7872 1.41397Z" fill="white"/>
<path d="M4.00087 16.6655C4.39842 16.7573 4.75544 16.8022 5.27959 16.8022C7.33232 16.8022 8.71543 15.3567 8.71543 13.5209C8.71543 11.8693 7.64714 11.2736 6.26515 11.2736C5.65604 11.2736 5.19519 11.3198 4.90203 11.4104L4.00087 16.6655ZM2.84818 9.5065C3.7077 9.27611 4.98642 9.13934 6.24349 9.13934C7.56441 9.13934 8.94752 9.43659 9.86922 10.2408C10.6865 10.9289 11.1685 11.9368 11.1685 13.3155C11.1685 15.15 10.3717 16.643 9.36562 17.5141C8.23459 18.5007 6.61939 18.9827 4.94311 18.9827C4.43951 18.9827 4.00087 18.9128 3.6233 18.8678L2.5961 24.7192H0.208008L2.84818 9.5065Z" fill="white"/>
<path d="M17.6424 15.4708C17.3914 15.4009 17.0777 15.3565 16.6374 15.3565C14.3947 15.3565 12.6341 18.1339 12.6341 20.6809C12.6341 21.8493 13.0322 22.814 14.1016 22.814C15.2531 22.814 16.6374 21.2547 17.1193 18.4087L17.6424 15.4708ZM16.6579 24.719C16.6579 24.0522 16.7412 23.1586 16.8261 22.2164H16.784C15.7784 24.2601 14.4153 24.9707 13.116 24.9707C11.2932 24.9707 10.0972 23.4103 10.0972 21.1624C10.0972 17.3534 12.5286 13.2916 17.2864 13.2916C18.3969 13.2916 19.5918 13.5207 20.3886 13.7961L19.3197 19.6244C19.0255 21.276 18.8583 23.3878 18.9005 24.719H16.6579Z" fill="white"/>
<path d="M34.2597 20.2907C34.2597 21.8262 34.9932 22.9076 36.2508 22.9076C38.0743 22.9076 39.2902 20.1527 39.2902 17.9272C39.2902 16.7789 38.8072 15.3565 37.3413 15.3565C35.3919 15.3565 34.2597 18.2026 34.2597 20.2907ZM41.8049 17.9053C41.8049 21.7131 39.3941 24.9707 35.916 24.9707C33.3369 24.9707 31.7456 23.0206 31.7456 20.3581C31.7456 16.5735 34.1554 13.2922 37.6345 13.2922C40.3796 13.2922 41.8049 15.4489 41.8049 17.9053Z" fill="white"/>
<path d="M42.2637 24.7192L43.5846 17.0089C43.8356 15.6777 43.9821 14.5075 44.1082 13.5446H46.2892L46.0582 15.5409H46.0993C47.0415 14.0486 48.3419 13.2917 49.7672 13.2917C51.2336 13.2917 52.3658 14.2565 52.3658 16.367C52.3658 16.8709 52.2836 17.6508 52.1781 18.2022L51.0654 24.7192H48.6134L49.7023 18.4089C49.7672 17.9961 49.8294 17.5141 49.8294 17.0776C49.8294 16.1366 49.5151 15.471 48.5512 15.471C47.4408 15.471 46.0149 16.939 45.5751 19.5565L44.6951 24.7192H42.2637Z" fill="white"/>
<path d="M58.8602 15.2878C57.3294 15.2878 56.3244 16.7789 56.0312 18.1339C58.5454 18.1564 60.1606 17.7892 60.1606 16.4361C60.1606 15.7249 59.6364 15.2878 58.8602 15.2878ZM61.1866 24.0759C60.18 24.6491 58.8191 24.9707 57.5815 24.9707C54.7547 24.9707 53.3916 23.0674 53.3916 20.3362C53.3916 16.9631 55.6537 13.2922 59.175 13.2922C61.1866 13.2922 62.4654 14.5535 62.4654 16.4361C62.4654 19.3035 59.7208 20.2207 55.7808 20.1296C55.7381 20.5192 55.8219 21.276 56.0529 21.7125C56.4515 22.4705 57.1828 22.8602 58.1484 22.8602C59.3021 22.8602 60.2227 22.5386 60.9584 22.1258L61.1866 24.0759Z" fill="white"/>
<path d="M68.3529 15.2878C66.8237 15.2878 65.8171 16.7789 65.5239 18.1339C68.038 18.1564 69.6532 17.7892 69.6532 16.4361C69.6532 15.7249 69.1291 15.2878 68.3529 15.2878ZM70.6793 24.0759C69.6743 24.6491 68.3118 24.9707 67.0764 24.9707C64.2474 24.9707 62.8843 23.0674 62.8843 20.3362C62.8843 16.9631 65.1463 13.2922 68.6677 13.2922C70.6793 13.2922 71.9603 14.5535 71.9603 16.4361C71.9603 19.3035 69.2135 20.2207 65.2735 20.1296C65.2302 20.5192 65.3146 21.276 65.5456 21.7125C65.9442 22.4705 66.6771 22.8602 67.641 22.8602C68.7948 22.8602 69.7154 22.5386 70.4511 22.1258L70.6793 24.0759Z" fill="white"/>
<path d="M72.105 24.7192L73.2993 17.835C73.5714 16.2521 73.718 14.5312 73.8212 13.5446H75.9389C75.8762 14.3014 75.814 15.0813 75.7085 15.8856H75.7707C76.4653 14.3932 77.5736 13.2917 78.9578 13.2917C79.1477 13.2917 79.3353 13.3155 79.5036 13.3155L79.0205 15.9312C78.895 15.9074 78.7274 15.9074 78.5591 15.9074C76.8184 15.9074 75.7085 17.835 75.3115 20.2209L74.5353 24.7192H72.105Z" fill="white"/>
<path d="M81.3575 14.567H81.5363C81.7195 14.567 81.8406 14.4552 81.8406 14.2862C81.8406 14.0959 81.7134 14.0127 81.5302 14.0127C81.4458 14.0127 81.3858 14.0193 81.3575 14.0266V14.567ZM81.1826 13.8929C81.2715 13.8753 81.3986 13.8625 81.5169 13.8625C81.7023 13.8625 81.8256 13.9038 81.9072 13.9841C81.9744 14.0491 82.0133 14.1506 82.0133 14.2674C82.0133 14.4594 81.9028 14.5895 81.7606 14.6412V14.6485C81.8639 14.6874 81.9244 14.7938 81.9589 14.947C82.0022 15.1512 82.0344 15.2953 82.0627 15.353H81.8817C81.86 15.308 81.8295 15.1834 81.7951 14.9992C81.754 14.795 81.679 14.7196 81.5213 14.7123H81.3575V15.353H81.1826V13.8929Z" fill="white"/>
<path d="M81.5836 13.2921C80.9173 13.2921 80.376 13.8848 80.376 14.6143C80.376 15.3437 80.9173 15.937 81.5836 15.937C82.2499 15.937 82.7913 15.3437 82.7913 14.6143C82.7913 13.8848 82.2499 13.2921 81.5836 13.2921ZM81.5836 13.4964C82.1467 13.4964 82.6036 13.9955 82.6036 14.6143C82.6036 15.2325 82.1467 15.7334 81.5836 15.7334C81.0189 15.7334 80.5614 15.2325 80.5614 14.6143C80.5614 13.9955 81.0189 13.4964 81.5836 13.4964Z" fill="white"/>
</g>
<defs>
<clipPath id="clip0_198_7826">
<rect width="83" height="32" fill="white"/>
</clipPath>
</defs>
</svg>
