<svg width="86" height="23" viewBox="0 0 86 23" fill="none" xmlns="http://www.w3.org/2000/svg">
<g clip-path="url(#clip0_198_7810)">
<path d="M32.181 5.65625H27.4282C27.2708 5.65615 27.1186 5.71255 26.999 5.81529C26.8793 5.91803 26.8001 6.06036 26.7756 6.21662L24.8534 18.47C24.8445 18.5269 24.8481 18.585 24.8637 18.6404C24.8794 18.6957 24.9067 18.747 24.944 18.7907C24.9812 18.8344 25.0275 18.8695 25.0795 18.8935C25.1315 18.9175 25.1881 18.9299 25.2453 18.9298H27.5144C27.6718 18.9299 27.8241 18.8734 27.9437 18.7705C28.0634 18.6676 28.1425 18.5251 28.1669 18.3687L28.6853 15.0638C28.7097 14.9075 28.7887 14.7651 28.9083 14.6623C29.0278 14.5594 29.1799 14.5028 29.3372 14.5027H30.8418C33.9725 14.5027 35.7794 12.9795 36.2513 9.96105C36.4639 8.64048 36.2603 7.60288 35.6453 6.87621C34.9698 6.07828 33.7717 5.65625 32.181 5.65625ZM32.7293 10.1315C32.4694 11.8462 31.1663 11.8462 29.9064 11.8462H29.1892L29.6923 8.64397C29.7071 8.55028 29.7546 8.46496 29.8263 8.40335C29.898 8.34174 29.9893 8.30789 30.0836 8.30789H30.4123C31.2706 8.30789 32.0802 8.30789 32.4985 8.79978C32.748 9.09325 32.8245 9.52925 32.7293 10.1315ZM46.3878 10.0763H44.1119C44.0175 10.0763 43.9263 10.1102 43.8546 10.1718C43.7829 10.2334 43.7354 10.3187 43.7206 10.4124L43.6199 11.0525L43.4607 10.8205C42.968 10.1015 41.8693 9.86114 40.7726 9.86114C38.2576 9.86114 36.1095 11.7763 35.6912 14.4629C35.4736 15.803 35.7829 17.0845 36.539 17.9782C37.2326 18.7998 38.2249 19.1422 39.4057 19.1422C41.4321 19.1422 42.5559 17.8321 42.5559 17.8321L42.4544 18.468C42.4454 18.5248 42.4487 18.5829 42.4642 18.6384C42.4796 18.6938 42.5069 18.7452 42.544 18.789C42.5811 18.8329 42.6272 18.8681 42.6792 18.8923C42.7312 18.9165 42.7877 18.929 42.845 18.9291H44.8951C45.0525 18.9292 45.2048 18.8727 45.3245 18.7698C45.4441 18.6669 45.5233 18.5244 45.5476 18.368L46.7777 10.5361C46.7868 10.4794 46.7835 10.4214 46.768 10.366C46.7526 10.3107 46.7254 10.2594 46.6883 10.2157C46.6513 10.172 46.6052 10.1369 46.5533 10.1128C46.5014 10.0888 46.445 10.0763 46.3878 10.0763ZM43.2154 14.53C42.9958 15.8373 41.9638 16.7149 40.6475 16.7149C39.9866 16.7149 39.4585 16.5018 39.1193 16.0979C38.783 15.6968 38.6551 15.126 38.7621 14.4901C38.9672 13.194 40.0165 12.2878 41.3126 12.2878C41.9589 12.2878 42.4843 12.5037 42.8304 12.911C43.1772 13.3226 43.3148 13.8969 43.2154 14.53ZM58.5092 10.0763H56.2221C56.1142 10.0765 56.0081 10.1031 55.9127 10.1539C55.8174 10.2047 55.7359 10.2781 55.6752 10.3677L52.5208 15.0393L51.1837 10.5501C51.1427 10.4132 51.0589 10.2932 50.9447 10.2078C50.8306 10.1225 50.6921 10.0764 50.5499 10.0763H48.3024C48.2393 10.0762 48.1771 10.0912 48.121 10.12C48.0648 10.1489 48.0163 10.1909 47.9795 10.2424C47.9428 10.294 47.9188 10.3536 47.9095 10.4163C47.9003 10.4791 47.9061 10.5431 47.9265 10.6032L50.4457 18.0361L48.0773 21.3977C48.0352 21.4573 48.0102 21.5274 48.0051 21.6003C48 21.6732 48.015 21.7461 48.0483 21.8111C48.0817 21.876 48.1322 21.9305 48.1943 21.9685C48.2564 22.0065 48.3277 22.0266 48.4004 22.0265H50.6847C50.7914 22.0267 50.8965 22.0008 50.991 21.9512C51.0855 21.9015 51.1667 21.8295 51.2275 21.7414L58.8344 10.7017C58.8757 10.642 58.8998 10.572 58.9044 10.4995C58.9089 10.4269 58.8935 10.3545 58.86 10.2901C58.8265 10.2256 58.7761 10.1717 58.7143 10.134C58.6524 10.0963 58.5815 10.0764 58.5092 10.0763Z" fill="white"/>
<path d="M66.0815 5.65597H61.328C61.1708 5.65604 61.0187 5.71252 60.8992 5.81524C60.7797 5.91797 60.7006 6.0602 60.6761 6.21634L58.7539 18.4698C58.7449 18.5265 58.7484 18.5846 58.7639 18.6399C58.7794 18.6952 58.8066 18.7465 58.8438 18.7902C58.8809 18.8339 58.927 18.8689 58.9789 18.893C59.0308 18.9171 59.0873 18.9295 59.1445 18.9295H61.5837C61.6938 18.9294 61.8002 18.8897 61.8837 18.8177C61.9673 18.7458 62.0226 18.6462 62.0396 18.5368L62.5852 15.0635C62.6095 14.9072 62.6886 14.7648 62.8081 14.662C62.9276 14.5591 63.0797 14.5025 63.237 14.5024H64.7409C67.8724 14.5024 69.6785 12.9792 70.1511 9.96078C70.3645 8.6402 70.1594 7.6026 69.5444 6.87593C68.8696 6.078 67.6722 5.65597 66.0815 5.65597ZM66.6298 10.1313C66.3706 11.8459 65.0675 11.8459 63.8069 11.8459H63.0904L63.5942 8.64369C63.6087 8.55 63.656 8.46461 63.7276 8.40296C63.7993 8.34132 63.8905 8.30749 63.9848 8.30761H64.3135C65.1711 8.30761 65.9814 8.30761 66.3998 8.79951C66.6492 9.09297 66.725 9.52897 66.6298 10.1313ZM80.2877 10.0761H78.0131C77.9188 10.0758 77.8275 10.1096 77.7558 10.1713C77.6841 10.2329 77.6368 10.3184 77.6225 10.4121L77.5218 11.0522L77.3619 10.8202C76.8692 10.1012 75.7712 9.86086 74.6745 9.86086C72.1595 9.86086 70.0121 11.776 69.5938 14.4626C69.3769 15.8028 69.6848 17.0842 70.4409 17.9779C71.1359 18.7996 72.1269 19.1419 73.3076 19.1419C75.3341 19.1419 76.4578 17.8318 76.4578 17.8318L76.3563 18.4677C76.3473 18.5246 76.3506 18.5829 76.3662 18.6384C76.3817 18.694 76.4091 18.7454 76.4463 18.7893C76.4836 18.8332 76.5299 18.8683 76.5821 18.8924C76.6342 18.9165 76.6909 18.9289 76.7483 18.9288H78.7977C78.955 18.9287 79.1071 18.8722 79.2267 18.7693C79.3462 18.6664 79.4252 18.524 79.4496 18.3678L80.6803 10.5358C80.689 10.4789 80.6854 10.4208 80.6697 10.3654C80.654 10.3101 80.6265 10.2588 80.5892 10.2151C80.5519 10.1714 80.5056 10.1364 80.4536 10.1124C80.4015 10.0884 80.3449 10.076 80.2877 10.0761ZM77.1152 14.5297C76.897 15.837 75.8636 16.7146 74.5474 16.7146C73.8879 16.7146 73.3583 16.5015 73.0192 16.0976C72.6828 15.6966 72.5563 15.1257 72.662 14.4899C72.8684 13.1937 73.9164 12.2875 75.2124 12.2875C75.8587 12.2875 76.3841 12.5034 76.7302 12.9108C77.0784 13.3223 77.216 13.8967 77.1152 14.5297ZM82.9709 5.99206L81.0202 18.4698C81.0112 18.5265 81.0146 18.5846 81.0301 18.6399C81.0457 18.6952 81.0729 18.7465 81.11 18.7902C81.1472 18.8339 81.1933 18.8689 81.2452 18.893C81.2971 18.9171 81.3536 18.9295 81.4107 18.9295H83.3719C83.6978 18.9295 83.9744 18.692 84.0244 18.3685L85.9481 6.11573C85.957 6.05893 85.9536 6.00087 85.9381 5.94552C85.9226 5.89017 85.8953 5.83886 85.8582 5.79511C85.8211 5.75136 85.775 5.7162 85.7231 5.69207C85.6712 5.66793 85.6147 5.65538 85.5575 5.65527H83.3615C83.2672 5.65561 83.1761 5.68968 83.1045 5.7514C83.033 5.81311 82.9856 5.89842 82.9709 5.99206Z" fill="white"/>
<path d="M5.11589 21.3107L5.47934 18.9896L4.66973 18.9707H0.803711L3.49039 1.84302C3.49839 1.79069 3.52483 1.74299 3.56488 1.70861C3.60494 1.67424 3.65595 1.65549 3.70861 1.65576H10.2273C12.3913 1.65576 13.8848 2.10853 14.6645 3.0022C15.0301 3.42143 15.2629 3.85952 15.3755 4.34164C15.4936 4.84751 15.4957 5.4519 15.3803 6.18905L15.372 6.24285V6.71519L15.7375 6.9234C16.0166 7.06555 16.2674 7.25784 16.4776 7.49076C16.7904 7.84921 16.9926 8.30477 17.0781 8.84488C17.1663 9.40036 17.1372 10.0613 16.9926 10.8097C16.8258 11.6705 16.5562 12.4202 16.192 13.0337C15.8707 13.5833 15.4387 14.0593 14.9237 14.4311C14.44 14.7763 13.8653 15.0383 13.2155 15.206C12.5859 15.3709 11.868 15.4541 11.0807 15.4541H10.5733C10.2106 15.4541 9.85823 15.5854 9.58164 15.8209C9.30545 16.0589 9.12222 16.3877 9.0646 16.7488L9.02638 16.9577L8.38424 21.0487L8.35505 21.1989C8.34741 21.2464 8.33421 21.2702 8.31475 21.2863C8.2959 21.3018 8.27238 21.3104 8.24803 21.3107H5.11589Z" fill="white"/>
<path d="M16.0838 6.29736C16.0644 6.42243 16.0421 6.5503 16.0171 6.68166C15.1575 11.1192 12.2164 12.6522 8.46021 12.6522H6.5477C6.08834 12.6522 5.70125 12.9876 5.62967 13.4432L4.65048 19.6869L4.3732 21.4568C4.36215 21.527 4.36637 21.5988 4.38556 21.6672C4.40475 21.7356 4.43845 21.799 4.48436 21.853C4.53026 21.9071 4.58727 21.9505 4.65146 21.9803C4.71565 22.0101 4.78549 22.0255 4.85619 22.0255H8.24825C8.64993 22.0255 8.99115 21.7321 9.05439 21.3338L9.08775 21.1605L9.72641 17.0856L9.76741 16.862C9.82996 16.4623 10.1719 16.1689 10.5736 16.1689H11.0809C14.3673 16.1689 16.94 14.8273 17.6919 10.9452C18.0061 9.32352 17.8434 7.9694 17.0123 7.01704C16.7488 6.72244 16.4342 6.47856 16.0838 6.29736Z" fill="white"/>
<path d="M15.1843 5.93695C14.9098 5.85711 14.6306 5.7948 14.3483 5.75039C13.7904 5.66419 13.2267 5.62284 12.6623 5.62671H7.55302C7.35858 5.62656 7.1705 5.69636 7.02277 5.82348C6.87505 5.9506 6.77744 6.12666 6.74757 6.31984L5.66067 13.2413L5.62939 13.4433C5.66325 13.2229 5.77443 13.0221 5.94282 12.877C6.1112 12.7319 6.32567 12.6522 6.54743 12.6523H8.45993C12.2161 12.6523 15.1572 11.1186 16.0168 6.68178C16.0426 6.55042 16.0641 6.42255 16.0836 6.29748C15.8567 6.17788 15.6203 6.07762 15.3768 5.99773C15.3129 5.97644 15.2488 5.95617 15.1843 5.93695Z" fill="#252525"/>
<path d="M6.74712 6.31986C6.77673 6.12663 6.87429 5.95048 7.02209 5.82343C7.16989 5.69637 7.35811 5.62683 7.55257 5.62743H12.6619C13.2672 5.62743 13.8322 5.66726 14.3478 5.75111C14.6967 5.80624 15.0409 5.88871 15.377 5.99775C15.6307 6.0823 15.8663 6.18221 16.0838 6.2975C16.3395 4.65761 16.0817 3.54106 15.1998 2.53001C14.2276 1.41696 12.4728 0.94043 10.2274 0.94043H3.70879C3.25012 0.94043 2.85887 1.27581 2.78798 1.73208L0.0728047 19.0358C0.0601579 19.1162 0.0649696 19.1983 0.0869088 19.2766C0.108848 19.3549 0.147394 19.4275 0.199896 19.4894C0.252397 19.5512 0.317608 19.601 0.391042 19.6351C0.464477 19.6692 0.544392 19.6869 0.625291 19.687H4.64976L5.66022 13.2414L6.74712 6.31986Z" fill="white"/>
</g>
<defs>
<clipPath id="clip0_198_7810">
<rect width="86" height="23" fill="white"/>
</clipPath>
</defs>
</svg>
