<svg width="52" height="18" viewBox="0 0 52 18" fill="none" xmlns="http://www.w3.org/2000/svg">
<path d="M22.6426 16.9183H18.5223L21.0975 1.09236H25.2182L22.6426 16.9183ZM15.0561 1.09236L11.1279 11.9775L10.6631 9.63355L10.6635 9.63439L9.27712 2.5173C9.27712 2.5173 9.10948 1.09236 7.32259 1.09236H0.828642L0.752441 1.36033C0.752441 1.36033 2.7383 1.7735 5.06241 3.16923L8.64212 16.9187H12.9352L19.4905 1.09236H15.0561ZM47.4644 16.9183H51.2477L47.9491 1.09193H44.637C43.1074 1.09193 42.7349 2.27134 42.7349 2.27134L36.5898 16.9183H40.8849L41.7439 14.5675H46.9818L47.4644 16.9183ZM42.9305 11.3201L45.0954 5.39767L46.3134 11.3201H42.9305ZM36.912 4.89813L37.5 1.4996C37.5 1.4996 35.6856 0.80957 33.7941 0.80957C31.7494 0.80957 26.8938 1.70323 26.8938 6.04875C26.8938 10.1373 32.5927 10.1881 32.5927 12.3357C32.5927 14.4833 27.4809 14.0985 25.7939 12.7442L25.1814 16.2977C25.1814 16.2977 27.0212 17.1913 29.8321 17.1913C32.6439 17.1913 36.8857 15.7355 36.8857 11.7731C36.8857 7.65827 31.1356 7.27515 31.1356 5.48614C31.136 3.69671 35.1488 3.92658 36.912 4.89813Z" fill="white"/>
</svg>
